PathFileType	4	(X/Y/Z)	Patient4_TMGait_0pt5_02_left_08.trc.trc
DataRate	CameraRate	NumFrames	NumMarkers	Units	OrigDataRate	OrigDataStartFrame	OrigNumFrames
78.212290502793	78.212290502793	4	33	mm	78.212290502793	53	       141
Frame#	Time	Sacral			L.Shoulder			Chest			R.Shoulder			Neck			R.ASIS			L.ASIS			R.Thigh.Superior			R.Thigh.Lateral			R.Thigh.Inferior			R.Patella			L.Thigh.Superior			L.Thigh.Lateral			L.Thigh.Inferior			L.Patella			L.Shank.Superior			L.Shank.Lateral			L.Shank.Inferior			R.Shank.Superior			R.Shank.Lateral			R.Shank.Inferior			R.Heel			R.Midfoot.Superior			R.Midfoot.Lateral			R.Toe			L.Heel			L.Midfoot.Lateral			L.Midfoot.Superior			L.Toe			L.Elbow			L.Wrist			R.Elbow			R.Wrist			
		X1	Y1	Z1	X2	Y2	Z2	X3	Y3	Z3	X4	Y4	Z4	X5	Y5	Z5	X6	Y6	Z6	X7	Y7	Z7	X8	Y8	Z8	X9	Y9	Z9	X10	Y10	Z10	X11	Y11	Z11	X12	Y12	Z12	X13	Y13	Z13	X14	Y14	Z14	X15	Y15	Z15	X16	Y16	Z16	X17	Y17	Z17	X18	Y18	Z18	X19	Y19	Z19	X20	Y20	Z20	X21	Y21	Z21	X22	Y22	Z22	X23	Y23	Z23	X24	Y24	Z24	X25	Y25	Z25	X26	Y26	Z26	X27	Y27	Z27	X28	Y28	Z28	X29	Y29	Z29	X30	Y30	Z30	X31	Y31	Z31	X32	Y32	Z32	X33	Y33	Z33	

53	10.484857142857	547.061235843318	1007.898433216824	467.967964116075	730.417772791522	1436.547322096323	293.157939421295	829.918765147790	1363.100391705196	454.944670677112	745.146559510241	1436.854786374361	629.158203579268	728.832271415686	1495.912692384903	444.531348991730	769.980548018484	941.984212113260	590.434036617493	766.397465412259	962.317658123119	315.651891098599	847.062049605046	766.054517052342	563.082861703147	798.919530604489	644.696932922579	629.527964980182	890.372503418032	602.372795721865	553.720327712696	901.483952429743	486.491130568760	573.175102564155	816.697649830329	754.018398399718	342.573416884892	731.530566006445	637.721229576837	284.336576049152	816.673759358080	561.511383638608	348.865311104243	817.704862251221	490.974443123898	359.159701009145	792.018109502191	418.375867860994	350.659874742249	704.591842125545	302.903085730901	299.424559607321	754.851965206422	193.425659184921	372.781028192474	819.859484160688	416.722985498275	576.310607795293	695.236546429015	385.848980188786	634.864842148840	671.157749887890	280.735840396351	582.265367653119	465.097906610637	240.909383828010	552.320130348481	627.100077947611	164.052516074995	589.798387264482	516.712172715734	170.687669862802	621.925275035384	680.724316578738	43.568702509750	610.505864350993	626.804514901624	37.093081876305	414.610934404277	701.556261957129	34.541979543176	334.166102769034	784.144287817458	95.985296398758	361.732554698456	913.149241183102	45.218708790103	335.468676144576	725.587819050138	1091.765525716043	148.896323290445	892.330436252737	888.557179371255	141.499324173389	707.546701368257	1089.105172026240	740.953369156371	804.747867330787	846.091693448915	732.357433114587	
54	10.497642857143	546.439743151758	1008.642819641664	466.891926236005	732.487845651450	1436.927288524750	292.569014361686	830.279392659302	1363.418256517645	455.317134359925	744.130029831408	1437.458582058063	628.742510863583	729.780234588753	1496.422955652939	443.871967572729	768.805943920301	943.222939945745	590.442116802977	766.490451496408	962.860761895415	315.473302132617	848.708497475474	770.428362955175	562.072397896134	804.006976454410	648.224513702196	628.962833129306	895.807456102567	607.743188190269	552.592507444082	909.802933343312	491.999839821657	572.140870304404	814.672012731253	753.269128254833	342.856982966943	728.491283515276	637.805521945517	284.471445608229	812.483966499452	560.802529036890	349.425123963837	812.722698500528	490.421800762690	359.890993208423	786.906756136793	418.102093947590	351.129956872748	699.259123743161	302.966651342563	299.554558428699	748.850377834607	193.289626589448	373.064728218419	829.527125932151	420.602451596520	575.628979385664	705.731191855993	387.231798679858	634.520904650828	683.555665414594	281.652215672186	582.060200460213	478.295249414425	237.434746234142	552.982278399255	641.997943206288	164.020683031113	589.403269750738	531.743257040206	168.312815713769	622.286937823733	698.186591586097	44.731263924270	609.762689207303	620.281349356614	37.092881620610	414.580503286241	695.081084634759	34.550374016525	334.160456269958	777.664084095309	95.967134828431	361.799794718272	906.660783431037	45.228087136350	335.467700803094	732.938694899832	1092.852525401732	146.995247737216	905.551036471596	894.691420280280	141.062861398510	697.839353783728	1090.660772449610	739.670282825389	781.062255249513	842.175182655804	732.342981924212	
55	10.510428571429	545.960807809983	1009.359374833013	465.951645724116	734.619645278545	1437.372520631276	292.188960398877	830.711270548172	1363.726549111284	455.837781223474	743.215651853260	1438.020425110794	628.494245824470	730.755191009995	1496.929265447442	443.431276359473	767.697521641101	944.434751749288	590.495135512485	766.661546779609	963.338643020456	315.395501218842	850.060855846426	774.542473556397	561.255228378637	808.509091094184	651.647895369828	628.568721384103	900.492889323951	612.812529461433	551.619214660317	917.231534396943	497.455366978489	571.325107911859	812.640061278705	752.501195974337	343.360143330343	725.493509341541	637.885398915021	284.668280093570	808.266599542954	560.095093515789	350.075797132713	807.707102845414	489.874712187213	360.683746809119	781.774332540423	417.825808699483	351.649420244449	693.925511081944	303.020090140039	299.717087456925	742.847477708960	193.149919569633	373.381960704160	838.740630778206	424.233865012314	575.172105676832	716.101798788515	387.567992173798	634.431380156522	696.568435234221	281.407094709360	582.119360186075	492.501287519004	231.332247423959	553.887176122147	658.330024045333	162.656175738601	589.346579800637	548.248376890232	163.850377172195	622.989231745086	717.956299298825	45.262298723688	609.498406624760	613.758398187499	37.088574762232	414.566603933991	688.611065511547	34.560096816373	334.169205104688	771.191756077431	95.948762368839	361.884347540926	900.180441527362	45.225961987101	335.482265605855	739.839079660306	1094.056115611359	145.454121324177	918.351819372188	901.292908058191	141.157918649023	688.068700489811	1092.488006281594	738.549368260099	757.953089729495	839.683581688136	732.100473710861	
56	10.523214285714	545.609048885178	1010.022750561415	465.127090157155	736.805027100563	1437.840124535626	292.012896619399	831.218618201529	1363.991511754361	456.500892565636	742.405646056384	1438.510776513652	628.407308735443	731.759427688329	1497.400468523416	443.195893580560	766.661662307705	945.562995200480	590.600068287784	766.910949844597	963.725796957216	315.427730124232	851.134274825356	778.285864445813	560.640695072565	812.401414872867	654.844579537562	628.359503510373	904.408079716468	617.424275001268	550.825720377301	923.709106460570	502.714957251328	570.756616816680	810.635286478931	751.717259441334	344.056650340337	722.572024128150	637.955420691356	284.895321779730	804.062820485564	559.388180250674	350.777225713229	802.701830727470	489.327651593959	361.494812418555	776.657745760715	417.534231245810	352.188035935576	688.616602290621	303.054147604962	299.891695179724	736.858014676724	192.998375529093	373.717789064615	847.440441616230	427.526839457439	574.967096928295	726.343245276292	386.842234021710	634.634321694429	710.159432863421	280.045870043960	582.473727307108	507.791787204954	222.812325424984	555.068707058459	676.021784919725	160.077513769723	589.676293534628	566.210482140625	157.501652096669	624.062741873016	739.827528924752	45.200215272462	609.749916787252	607.242127414400	37.079396541267	414.566858801561	682.147945931760	34.569173480140	334.189397024945	764.729646677983	95.929040460929	361.982452875768	893.711190506422	45.212490156923	335.509721089866	746.258689030637	1095.313240999811	144.251020603684	930.690834184329	908.324612199597	141.763528063725	678.265719372806	1094.549027660385	737.577212802572	735.588099799851	838.457689183996	731.674798059926	
